#N canvas 125 83 683 707 12;
#X obj 169 476 dac~;
#X obj 172 53 notein;
#X obj 169 220 line~;
#X text 266 204 <- Ramp Generator;
#X obj 169 357 cos~;
#X obj 169 254 sqrt~;
#X text 243 345 <- Sine Waveshaper;
#X text 229 254 <- Pitch Bend;
#X text 229 288 <- Pitch;
#X obj 182 117 sel 0;
#X obj 169 288 *~ 20;
#X obj 169 328 -~ 0.25;
#X msg 169 191 0 \, 1 200;
#X obj 169 392 lop~ 1000;
#X connect 1 1 9 0;
#X connect 2 0 5 0;
#X connect 4 0 13 0;
#X connect 5 0 10 0;
#X connect 9 0 12 0;
#X connect 10 0 11 0;
#X connect 11 0 4 0;
#X connect 12 0 2 0;
#X connect 13 0 0 0;
#X connect 13 0 0 1;
