#N canvas 1174 132 683 707 12;
#X obj 175 626 dac~;
#X obj 174 114 notein;
#X obj 174 343 pack 0 0 0;
#X obj 171 191 mtof;
#X obj 210 190 / 127;
#X text 372 419 ADSR;
#X obj 174 546 *~ 0.8;
#X obj 438 97 * 0.787402;
#X obj 372 97 * 10;
#X obj 372 280 t b f;
#X obj 438 280 t b f;
#X obj 526 281 t b f;
#X obj 526 96 pow 2;
#X obj 295 101 pow 2;
#X obj 174 310 - 1;
#X obj 174 277 poly 4 1;
#X obj 174 478 clone synth 4;
#X obj 295 76 ctlin 1;
#X obj 316 400 pack f f f f;
#X msg 284 447 all \$1 \$2 \$3 \$4;
#X obj 372 72 ctlin 2;
#X obj 438 72 ctlin 3;
#X obj 526 72 ctlin 4;
#X connect 1 0 3 0;
#X connect 1 1 4 0;
#X connect 2 0 16 0;
#X connect 3 0 15 0;
#X connect 4 0 15 1;
#X connect 6 0 0 0;
#X connect 6 0 0 1;
#X connect 7 0 10 0;
#X connect 8 0 9 0;
#X connect 9 0 18 0;
#X connect 9 1 18 1;
#X connect 10 0 18 0;
#X connect 10 1 18 2;
#X connect 11 0 18 0;
#X connect 11 1 18 3;
#X connect 12 0 11 0;
#X connect 13 0 18 0;
#X connect 14 0 2 0;
#X connect 15 0 14 0;
#X connect 15 1 2 1;
#X connect 15 2 2 2;
#X connect 16 0 6 0;
#X connect 17 0 13 0;
#X connect 18 0 19 0;
#X connect 19 0 16 1;
#X connect 20 0 8 0;
#X connect 21 0 7 0;
#X connect 22 0 12 0;
