#N canvas 1028 201 209 376 12;
#X obj 43 246 *~;
#X obj 44 159 osc~;
#X obj 44 74 unpack 0 0;
#X obj 44 32 inlet;
#X obj 44 297 outlet~;
#X obj 111 158 adsr;
#X obj 136 31 inlet;
#X connect 0 0 4 0;
#X connect 1 0 0 0;
#X connect 2 0 1 0;
#X connect 2 1 5 0;
#X connect 3 0 2 0;
#X connect 5 0 0 1;
#X connect 6 0 5 1;
